{"title":"Inside.Ring aka Ultimate.Heist.2009.SWESUB.DVDRip.XviD.AC3.(5.1)","uid":5742408,"size":1469808972,"categoryP":"video","categoryS":"movies","magnet":"?xt=urn:btih:e3b1c8bc378c01822cfef768f2277320fd4f3252&amp;dn=Inside.Ring+aka+Ultimate.Heist.2009.SWESUB.DVDRip.XviD.AC3.%285.1%29&amp;tr=udp%3A%2F%2Ftracker.openbittorrent.com%3A80&amp;tr=udp%3A%2F%2Fopen.demonii.com%3A1337&amp;tr=udp%3A%2F%2Ftracker.coppersurfer.tk%3A6969&amp;tr=udp%3A%2F%2Fexodus.desync.com%3A6969","seeders":0,"leechers":1,"uploader":"Zen_Bud","files":-1,"time":1281081923,"description":"General\nComplete name                    : Inside.Ring aka Ultimate.Heist.2009.avi\nFormat                           : AVI\nFile size                        : 1.37 GiB\nDuration                         : 1h 31mn\nOverall bit rate                 : 2 150 Kbps\n\nVideo\n\nFormat                           : MPEG-4 Visual\nCodec ID/Hint                    : XviD\nDuration                         : 1h 31mn\nBit rate                         : 1 691 Kbps\nWidth                            : 720 pixels\nHeight                           : 438 pixels\nDisplay aspect ratio             : 2.35:1\nStream size                      : 1.08 GiB (79%)\nWriting library                  : XviD 1.1.2 (UTC 2006-11-01)\n\nAudio\n\nFormat                           : AC-3\nDuration                         : 1h 31mn\nBit rate                         : 448 Kbps\nChannel(s)                       : 6 channels\nChannel positions                : Front: L C R, Side: L R, LFE\nSampling rate                    : 48.0 KHz\nStream size                      : 292 MiB (21%)\n\n\n","torrent":{"xt":"urn:btih:e3b1c8bc378c01822cfef768f2277320fd4f3252","amp;dn":"Inside.Ring+aka+Ultimate.Heist.2009.SWESUB.DVDRip.XviD.AC3.%285.1%29","amp;tr":["udp%3A%2F%2Ftracker.openbittorrent.com%3A80","udp%3A%2F%2Fopen.demonii.com%3A1337","udp%3A%2F%2Ftracker.coppersurfer.tk%3A6969","udp%3A%2F%2Fexodus.desync.com%3A6969"],"infoHash":"e3b1c8bc378c01822cfef768f2277320fd4f3252","infoHashBuffer":{"type":"Buffer","data":[227,177,200,188,55,140,1,130,44,254,247,104,242,39,115,32,253,79,50,82]},"announce":[],"urlList":[]}}